<svg width="143" height="45" viewBox="0 0 143 45" fill="none" xmlns="http://www.w3.org/2000/svg">
<path d="M115.506 18.5474C115.414 19.1583 115.139 21.0521 115.005 21.993C118.223 21.1129 121.36 19.9602 124.382 18.5474H115.506Z" fill="#003F7E"/>
<path d="M70.3531 26.0922L73.4505 23.1842C74.8578 23.5863 76.2853 23.9146 77.7269 24.1678C77.2565 21.3576 76.8472 18.8956 76.78 18.5352H71.9354C71.6544 19.1461 66.1195 31.6148 65.4658 33.0444H69.3512C69.5651 32.5557 70.8663 29.44 70.8663 29.44H74.9167C74.9167 29.44 75.3199 32.4946 75.3993 33.0505H79.2664C79.1748 32.5801 78.8143 30.3991 78.3806 27.8577C81.1175 28.0043 83.8788 28.0349 86.4019 27.9982C86.5346 28.2062 86.6046 28.448 86.6035 28.6947C86.6092 28.7821 86.6092 28.8699 86.6035 28.9574C86.5795 29.1149 86.5238 29.266 86.4398 29.4015C86.3558 29.5369 86.2453 29.6539 86.1148 29.7454C85.5507 30.0406 84.8956 30.1105 84.282 29.9409C83.0602 29.721 82.0644 28.7863 81.2702 28.0043C80.7692 28.8169 79.7185 30.5152 79.3886 31.0589C80.6767 32.3169 82.3215 33.1468 84.0987 33.4354C85.712 33.705 87.3668 33.3346 88.7111 32.4029C89.2503 32 89.7029 31.4928 90.0419 30.9113C90.3809 30.3299 90.5994 29.6861 90.6844 29.0185C90.7521 28.6375 90.7788 28.2504 90.7638 27.8638C93.4946 27.7478 95.7672 27.5767 97.2212 27.4423C97.4317 27.5725 97.6076 27.7516 97.7342 27.9643C97.8607 28.177 97.9341 28.417 97.9482 28.6641C97.957 28.7515 97.957 28.8395 97.9482 28.9268C97.9242 29.0844 97.8685 29.2355 97.7845 29.3709C97.7005 29.5064 97.5899 29.6234 97.4594 29.7149C96.9045 30.0039 96.2612 30.0737 95.6572 29.9104C94.4354 29.6905 93.4335 28.7558 92.6393 27.9738C92.1384 28.7863 91.0998 30.4846 90.7577 31.0284C92.0474 32.2874 93.6946 33.1174 95.474 33.4048C97.0674 33.6721 98.7025 33.3131 100.038 32.4029C100.577 32 101.029 31.4928 101.368 30.9113C101.707 30.3299 101.926 29.6861 102.011 29.0185C102.143 28.3148 102.116 27.5903 101.931 26.8986L103.715 26.6237C103.269 29.6782 102.872 32.5129 102.793 33.0444H112.164C112.25 32.4335 112.488 30.7229 112.598 29.9104H106.935L107.32 27.2346H112.464C112.543 26.6787 112.726 25.4018 112.848 24.5771C113.551 24.3572 113.899 24.2228 113.899 24.2228C113.899 24.2228 115.646 23.7035 117.895 22.8665C117.571 25.133 116.581 32.0791 116.441 33.0444H120.497C120.613 32.1891 122.055 22.1457 122.055 22.1457H124.993C125.085 21.5347 125.366 19.5309 125.494 18.6268C110.044 26.6603 86.7745 28.1448 70.3592 26.0922" fill="#003F7E"/>
<path d="M142.649 0C140.315 9.65246 131.952 14.9124 127.028 17.7165L126.82 17.4294C128.848 15.786 135.758 10.7093 137.975 2.21762L142.649 0Z" fill="#F08200"/>
<path d="M25.1208 18.5352H21.1316C21.0033 19.4454 19.2133 31.8836 19.0483 33.0444H23.0621C23.1965 32.1586 24.9742 19.702 25.1453 18.5352" fill="#003F7E"/>
<path d="M51.7752 33.0444H61.1405C61.2321 32.4335 61.4765 30.7229 61.5926 29.9104H55.9111L56.3021 27.2346H61.4521C61.5376 26.6237 61.7575 25.1025 61.8736 24.3144H56.7236L57.0962 21.6753H62.5945C62.6922 21.0277 62.9305 19.3477 63.0466 18.5413H53.8279C53.6996 19.4149 51.9157 31.8836 51.7446 33.0444" fill="#003F7E"/>
<path d="M12.9331 18.5352C12.6704 19.2011 9.32867 26.8497 9.32867 26.8497L8.19237 18.5352H3.34781C3.12788 19.2866 0.378767 31.7554 0 33.0444H3.59829C4.3375 30.1303 5.69984 23.3431 5.79147 22.8849L7.0744 33.0444H9.93959C10.2023 32.4335 14.271 22.8849 14.271 22.8849L13.6601 33.0444H17.2767C17.2767 32.018 17.9365 19.5554 17.9365 18.5352H12.9331Z" fill="#003F7E"/>
<path d="M41.0963 33.0444C41.2979 32.5557 42.3182 30.112 42.3182 30.112H46.8389C46.8389 30.112 47.0894 32.4824 47.1749 33.0505H51.0115C50.7915 31.8592 48.7022 19.3966 48.5678 18.5474H43.7171C43.4361 19.1583 37.9012 31.621 37.2476 33.0505L41.0963 33.0444ZM45.666 21.7303L46.4052 27.1124H43.3506L45.666 21.7303Z" fill="#003F7E"/>
<path d="M33.9789 26.9291C35.7505 26.5931 37.1373 26.0738 37.4855 23.3247C37.5348 22.9971 37.5614 22.6664 37.565 22.335C37.6037 21.4513 37.3217 20.5834 36.7708 19.8914C35.7994 18.7856 34.1499 18.5413 32.9281 18.5413H27.4299C27.3382 19.4454 25.5421 31.8836 25.3711 33.0444H29.0366C29.0977 32.5984 29.6047 29.0795 30.0446 26.0005L33.0564 33.0444H36.9357L33.9789 26.9291ZM32.7571 24.7298C32.3469 24.955 31.8871 25.0747 31.4192 25.078H30.1484C30.4539 22.9582 30.6922 21.2598 30.6922 21.2598H31.6146C31.923 21.2239 32.2354 21.255 32.5306 21.351C32.8259 21.4469 33.0969 21.6054 33.3252 21.8158C33.4826 22.0182 33.5928 22.2533 33.6477 22.5038C33.7027 22.7543 33.701 23.0139 33.6429 23.2636C33.6429 23.2636 33.5207 24.3755 32.7937 24.7298" fill="#003F7E"/>
<path d="M100.037 24.6016C99.8235 24.4733 98.2779 23.6974 98.2779 23.6974C97.9235 23.5263 97.1416 23.0498 97.1416 22.2679C97.1371 22.0919 97.1721 21.9171 97.244 21.7565C97.3159 21.5958 97.4228 21.4532 97.557 21.3393C97.7507 21.1952 97.9734 21.0949 98.2097 21.0454C98.4459 20.9958 98.6901 20.9981 98.9254 21.0521C99.806 21.2686 100.612 21.7181 101.259 22.3534C101.675 21.5653 102.481 20.0502 102.738 19.5126C101.776 18.6981 100.602 18.1747 99.3531 18.0037C98.5443 17.858 97.7147 17.8732 96.9118 18.0482C96.1088 18.2233 95.3482 18.5548 94.6735 19.0239C94.159 19.4169 93.7309 19.9114 93.4156 20.4768C93.1003 21.0422 92.9046 21.6664 92.8407 22.3106C92.8136 22.5336 92.8014 22.7581 92.8041 22.9826C92.7962 23.6705 92.9735 24.3478 93.3172 24.9437C95.4799 24.8948 97.7525 24.7787 100.037 24.6016Z" fill="#003F7E"/>
<path d="M89.2181 24.9742C88.4748 24.5062 87.7013 24.0878 86.9028 23.7218C86.5668 23.5324 85.7665 23.0743 85.7665 22.2923C85.7649 22.1167 85.8012 21.9429 85.8729 21.7827C85.9446 21.6225 86.05 21.4796 86.1819 21.3637C86.3784 21.2204 86.6032 21.1207 86.8412 21.0712C87.0793 21.0217 87.3252 21.0235 87.5625 21.0766C88.4462 21.2978 89.2555 21.7488 89.9085 22.3839C90.3117 21.5897 91.1303 20.0747 91.3869 19.5371C90.4207 18.7258 89.2457 18.2029 87.9963 18.0281C87.1872 17.8813 86.3569 17.8964 85.5537 18.0726C84.7504 18.2487 83.9901 18.5825 83.3167 19.0544C82.8029 19.4467 82.3752 19.9403 82.0599 20.5046C81.7447 21.0689 81.5486 21.6919 81.4839 22.3351C81.4599 22.5583 81.4477 22.7826 81.4473 23.0071C81.4381 23.5925 81.5526 24.1733 81.7833 24.7115C81.8749 24.7115 86.2063 25.0353 89.1998 24.9986" fill="#003F7E"/>
<path d="M108.108 21.6691H113.606C113.692 21.0582 113.936 19.3477 114.052 18.5352H104.876C104.815 18.92 104.454 21.3881 104.051 24.1861C105.334 24.0212 106.593 23.844 107.827 23.618L108.108 21.6691Z" fill="#003F7E"/>
<path d="M4.82015 39.8378C4.73462 38.8664 4.1237 38.3838 3.06071 38.3838C2.66433 38.37 2.27224 38.4696 1.93052 38.6709C1.77697 38.7706 1.65365 38.9103 1.57396 39.0751C1.49426 39.2399 1.46122 39.4234 1.47844 39.6056C1.46971 39.7194 1.48719 39.8336 1.52956 39.9395C1.57193 40.0454 1.63804 40.1402 1.72281 40.2165C1.91209 40.3811 2.13525 40.5021 2.37649 40.5709C2.66575 40.6592 2.95938 40.7326 3.25621 40.7908C3.57999 40.8519 3.89767 40.9252 4.22145 41.0168C4.52968 41.1001 4.82856 41.2147 5.11339 41.3589C5.38043 41.5004 5.6042 41.7115 5.76096 41.9699C5.93175 42.2621 6.01646 42.5967 6.00532 42.9351C6.0145 43.2732 5.92993 43.6073 5.76096 43.9003C5.60333 44.1727 5.37821 44.4 5.10728 44.5601C4.83037 44.7212 4.53217 44.8426 4.22145 44.9206C3.90165 44.9993 3.57335 45.0383 3.24399 45.0366C2.4947 45.0752 1.75431 44.8599 1.14244 44.4257C0.868463 44.2084 0.650588 43.9286 0.507087 43.6097C0.363586 43.2908 0.298643 42.9422 0.317705 42.593H1.20964C1.19648 42.8391 1.24555 43.0845 1.35233 43.3066C1.45911 43.5287 1.62014 43.7203 1.82056 43.8637C2.25031 44.1614 2.76421 44.3134 3.28675 44.2974C3.73142 44.3131 4.17221 44.2098 4.56356 43.9981C4.73546 43.8998 4.87568 43.7544 4.96768 43.5791C5.05969 43.4037 5.09964 43.2057 5.08284 43.0084C5.08745 42.8887 5.06822 42.7693 5.02627 42.657C4.98432 42.5448 4.92048 42.4421 4.83847 42.3547C4.65661 42.1719 4.43189 42.0375 4.1848 41.9637C3.8975 41.8654 3.6035 41.7878 3.30508 41.7316C2.98129 41.6644 2.66362 41.5911 2.33983 41.5056C2.03434 41.4268 1.73598 41.3226 1.4479 41.194C1.18653 41.0694 0.96302 40.8776 0.800329 40.6381C0.628672 40.3729 0.541348 40.0619 0.549853 39.7461C0.534811 39.4463 0.596478 39.1475 0.729031 38.8782C0.861583 38.6088 1.06064 38.3776 1.30739 38.2066C1.84587 37.8383 2.48813 37.652 3.14013 37.6751C3.79629 37.6482 4.44226 37.8441 4.97288 38.2311C5.21681 38.4375 5.41105 38.6964 5.54114 38.9883C5.67124 39.2802 5.73384 39.5977 5.7243 39.9172L4.82015 39.8378Z" fill="#003F7E"/>
<path d="M11.3628 43.2161C11.2815 43.7181 11.0184 44.1725 10.6236 44.493C10.2026 44.7998 9.69006 44.9548 9.1696 44.9328C8.83487 44.9541 8.49963 44.8998 8.18872 44.774C7.87781 44.6481 7.59919 44.454 7.37351 44.2058C6.93215 43.6488 6.69883 42.9553 6.71373 42.2448C6.68832 41.5443 6.93081 40.8606 7.39184 40.3326C7.60993 40.0932 7.87756 39.9041 8.17614 39.7785C8.47471 39.653 8.79705 39.594 9.12073 39.6056C9.4437 39.6003 9.76421 39.6627 10.0615 39.7889C10.3211 39.8995 10.5527 40.0664 10.7397 40.2776C10.9177 40.4861 11.062 40.721 11.1673 40.9741C11.2753 41.2268 11.3533 41.4913 11.3994 41.7622C11.4448 42.0161 11.4632 42.2741 11.4544 42.5319H7.60566C7.5734 42.9734 7.71109 43.4105 7.99054 43.7537C8.14263 43.924 8.33209 44.0568 8.54408 44.1416C8.75606 44.2263 8.9848 44.2609 9.21237 44.2425C9.51994 44.2751 9.82843 44.1898 10.0756 44.0038C10.3228 43.8179 10.4902 43.5451 10.5442 43.2406L11.3628 43.2161ZM10.5503 41.7866C10.5337 41.3981 10.3725 41.0298 10.0982 40.7542C9.96461 40.6184 9.80461 40.5115 9.62808 40.4401C9.45155 40.3686 9.26224 40.3341 9.07186 40.3387C8.88036 40.3325 8.68967 40.3663 8.51192 40.4378C8.33418 40.5093 8.17326 40.6171 8.03941 40.7542C7.77522 41.0348 7.62121 41.4014 7.60566 41.7866H10.5503Z" fill="#003F7E"/>
<path d="M15.7741 41.365C15.7402 41.0622 15.5886 40.7849 15.352 40.5929C15.1154 40.4008 14.8128 40.3095 14.5095 40.3387C14.274 40.3187 14.0373 40.3606 13.823 40.4603C13.6087 40.56 13.4241 40.7139 13.2876 40.9069C13.0216 41.3372 12.8898 41.837 12.9089 42.3425C12.8962 42.8166 13.0284 43.2833 13.2876 43.6804C13.4631 43.9 13.6995 44.063 13.9671 44.149C14.2347 44.2351 14.5218 44.2402 14.7924 44.164C15.0629 44.0877 15.305 43.9333 15.4883 43.7202C15.6716 43.507 15.788 43.2446 15.8229 42.9656H16.6843C16.632 43.5285 16.3781 44.0534 15.9696 44.444C15.4798 44.8052 14.8787 44.9829 14.2713 44.9461C13.6639 44.9092 13.0887 44.6602 12.6462 44.2424C12.2138 43.7069 11.9961 43.0297 12.0353 42.3425C12.0021 41.6317 12.2182 40.9316 12.6462 40.3631C12.8665 40.1082 13.1426 39.9072 13.4529 39.7759C13.7633 39.6446 14.0997 39.5863 14.4362 39.6056C14.9773 39.5848 15.5108 39.739 15.9573 40.0455C16.1624 40.2025 16.3304 40.4026 16.4497 40.6317C16.569 40.8607 16.6366 41.1131 16.6477 41.3711L15.7741 41.365Z" fill="#003F7E"/>
<path d="M21.8401 44.8412H21.0459V44.0286C20.8861 44.3224 20.6464 44.5649 20.3545 44.7282C20.0626 44.8914 19.7305 44.9687 19.3965 44.9511C19.1448 44.985 18.8887 44.9614 18.6474 44.882C18.4062 44.8026 18.186 44.6696 18.0036 44.4929C17.7119 44.094 17.5693 43.6055 17.6004 43.1123V39.7156H18.4435V43.1856C18.4322 43.3251 18.4515 43.4654 18.5002 43.5966C18.5489 43.7278 18.6257 43.8468 18.7252 43.9452C18.8248 44.0436 18.9447 44.119 19.0765 44.1661C19.2082 44.2132 19.3488 44.231 19.4881 44.218C19.6974 44.2333 19.9074 44.2018 20.1029 44.1257C20.2984 44.0496 20.4745 43.9309 20.6183 43.7782C20.891 43.4524 21.0306 43.0356 21.0093 42.6113V39.7156H21.8401V44.8412Z" fill="#003F7E"/>
<path d="M23.062 39.7156H23.8562V40.8274C24.0168 40.4531 24.2792 40.1313 24.6137 39.8988C24.9546 39.6791 25.3577 39.5762 25.7623 39.6056V40.4975C25.5016 40.4716 25.2385 40.5055 24.9929 40.5965C24.7473 40.6875 24.5257 40.8334 24.3449 41.0229C24.0209 41.4703 23.8652 42.0176 23.9051 42.5685V44.8473H23.062V39.7156Z" fill="#003F7E"/>
<path d="M27.2713 38.7931H26.4282V37.7729H27.2713V38.7931ZM26.4282 39.7156H27.2713V44.8411H26.4282V39.7156Z" fill="#003F7E"/>
<path d="M29.7269 39.7156H30.7472V40.4609H29.7269V43.6438C29.7269 43.8393 29.7697 43.9676 29.8491 44.0164C30.0099 44.0888 30.1867 44.1183 30.3623 44.102H30.7472V44.8412H30.1362C29.799 44.8766 29.4596 44.7993 29.171 44.6212C29.0665 44.4983 28.9887 44.355 28.9424 44.2004C28.8962 44.0458 28.8825 43.8833 28.9022 43.7232V40.4609H28.0103V39.7156H28.8839V38.1761H29.7269V39.7156Z" fill="#003F7E"/>
<path d="M32.5555 38.7931H31.7124V37.7729H32.5555V38.7931ZM31.7124 39.7156H32.5555V44.8411H31.7124V39.7156Z" fill="#003F7E"/>
<path d="M38.2189 43.2161C38.1354 43.7173 37.8727 44.171 37.4797 44.4929C37.0578 44.798 36.5459 44.9529 36.0257 44.9328C35.685 44.9588 35.3429 44.9069 35.0254 44.7809C34.7078 44.655 34.4231 44.4583 34.1929 44.2058C33.7582 43.6452 33.5257 42.9541 33.5332 42.2448C33.5069 41.5431 33.752 40.8583 34.2174 40.3326C34.4386 40.0887 34.7111 39.897 35.0154 39.7713C35.3196 39.6456 35.648 39.589 35.9768 39.6056C36.2998 39.6002 36.6203 39.6627 36.9176 39.7889C37.1745 39.9011 37.4038 40.0679 37.5896 40.2776C37.7697 40.4845 37.9142 40.7199 38.0173 40.9741C38.1253 41.2267 38.2032 41.4913 38.2494 41.7621C38.2932 42.0183 38.3096 42.2784 38.2983 42.538H34.4556C34.4225 42.9806 34.5627 43.4187 34.8466 43.7598C34.9981 43.9309 35.1875 44.0641 35.3996 44.149C35.6118 44.2338 35.8408 44.2679 36.0685 44.2486C36.375 44.2795 36.682 44.1935 36.9278 44.0077C37.1737 43.8219 37.3402 43.5501 37.3941 43.2467L38.2189 43.2161ZM37.4064 41.7866C37.3869 41.3987 37.2261 41.0315 36.9543 40.7541C36.8207 40.6184 36.6607 40.5115 36.4842 40.4401C36.3076 40.3686 36.1183 40.3341 35.9279 40.3387C35.7363 40.3314 35.5453 40.3646 35.3674 40.4362C35.1895 40.5078 35.0287 40.6161 34.8955 40.7541C34.6318 41.0357 34.4761 41.4014 34.4556 41.7866H37.4064Z" fill="#003F7E"/>
<path d="M39.6668 43.2284C39.662 43.3788 39.6966 43.528 39.7674 43.6609C39.8381 43.7938 39.9425 43.9059 40.07 43.9859C40.3669 44.1496 40.7026 44.2299 41.0414 44.218C41.8661 44.218 42.2632 43.9615 42.2632 43.4544C42.2651 43.3575 42.244 43.2615 42.2015 43.1744C42.159 43.0873 42.0964 43.0116 42.0188 42.9534C41.8382 42.8186 41.6293 42.7267 41.4079 42.6846C41.1554 42.6358 40.8866 42.5747 40.6015 42.5014C40.3164 42.4281 40.0476 42.3486 39.7951 42.2631C39.5549 42.1785 39.3433 42.0282 39.1842 41.8294C39.0187 41.6054 38.9346 41.3317 38.9459 41.0535C38.9407 40.8341 38.9947 40.6173 39.1022 40.426C39.2097 40.2346 39.3667 40.0757 39.5569 39.9661C39.9581 39.7172 40.4228 39.5899 40.8948 39.5995C41.4163 39.5702 41.9349 39.6956 42.3854 39.96C42.5761 40.1012 42.7309 40.2855 42.837 40.4978C42.9432 40.7101 42.9978 40.9444 42.9963 41.1818H42.1532C42.1533 41.049 42.119 40.9185 42.0537 40.8029C41.9884 40.6873 41.8943 40.5905 41.7806 40.522C41.5327 40.3772 41.2489 40.3052 40.962 40.3143C40.6951 40.3057 40.4298 40.3579 40.1861 40.467C40.0884 40.5076 40.0058 40.5777 39.95 40.6675C39.8941 40.7573 39.8677 40.8624 39.8745 40.968C39.8653 41.0287 39.8653 41.0905 39.8745 41.1512C39.8962 41.2084 39.9294 41.2604 39.9723 41.304L40.1067 41.42C40.1638 41.4646 40.2278 41.4997 40.2961 41.5239L40.5038 41.6094C40.5812 41.6399 40.6609 41.6644 40.742 41.6827L40.9925 41.7438L41.2613 41.8049L41.524 41.866C41.7315 41.9084 41.9356 41.9656 42.1349 42.0371C42.3159 42.103 42.4899 42.1869 42.6542 42.2875C42.8234 42.3881 42.961 42.5341 43.0513 42.7091C43.1449 42.8988 43.191 43.1085 43.1857 43.32C43.2015 43.674 43.0788 44.0202 42.8436 44.2852C42.631 44.5275 42.3532 44.7036 42.0433 44.7923C41.7053 44.8866 41.3556 44.9318 41.0047 44.9267C40.4635 44.9524 39.9277 44.8094 39.4713 44.5174C39.2715 44.3636 39.1117 44.1639 39.0053 43.9353C38.899 43.7067 38.8493 43.4558 38.8604 43.2039L39.6668 43.2284Z" fill="#003F7E"/>
</svg>
