<svg width="42" height="42" viewBox="0 0 42 42" fill="none" xmlns="http://www.w3.org/2000/svg">
<path fill-rule="evenodd" clip-rule="evenodd" d="M21 42C32.598 42 42 32.598 42 21C42 9.40202 32.598 0 21 0C9.40202 0 0 9.40202 0 21C0 32.598 9.40202 42 21 42ZM19.1881 11.4398C19.6289 11.471 20.1108 11.4569 20.6173 11.4422C21.4815 11.417 22.4177 11.3897 23.3449 11.5812C29.0717 12.7643 31.4726 19.7758 27.6903 24.2229C26.4489 25.6825 24.8913 26.5568 23.0299 26.9251C22.3355 27.0627 21.6993 26.6733 21.5393 26.0347C21.3843 25.4171 21.7787 24.7574 22.4781 24.5924C23.7095 24.3022 24.8268 23.8347 25.6788 22.855C27.1558 21.1573 27.5452 19.2364 26.6833 17.1654C25.8239 15.0994 24.1956 13.9337 21.9548 13.8407C20.4367 13.7775 18.9156 13.7884 17.3945 13.7993H17.3944C16.7062 13.8042 16.0181 13.8091 15.3301 13.8072C14.4248 13.8047 13.9647 13.4265 13.9474 12.675C13.93 11.885 14.4013 11.4473 15.3078 11.4411C16.1371 11.4351 16.967 11.4362 17.8924 11.4375H17.8926H17.893C18.3028 11.438 18.7313 11.4386 19.1868 11.4386L19.1881 11.4398ZM13.9541 26.5754C13.9614 27.0026 13.9685 27.4208 13.946 27.824V27.8253C13.946 28.2021 13.9456 28.5637 13.9452 28.9152C13.9444 29.5897 13.9436 30.2272 13.946 30.8648C13.9485 31.6857 14.3739 32.1843 15.0745 32.1979C15.8347 32.2128 16.3072 31.6882 16.3097 30.8251C16.3109 30.3264 16.3112 29.8275 16.3115 29.3286C16.3121 28.2594 16.3128 27.1898 16.3221 26.1201C16.327 25.5633 16.3456 25.0015 16.5044 24.4646C17.1095 22.4172 18.4625 21.1324 20.5149 20.5694C21.2974 20.3549 21.6595 19.7782 21.4859 19.0441C21.3507 18.4724 20.6773 18.0532 20.0263 18.207C17.3055 18.8494 14.9964 20.8385 14.1754 23.8284C13.9229 24.7487 13.9389 25.682 13.9541 26.5754Z" fill="#031833"/>
</svg>
